<svg width="40" height="41" viewBox="0 0 40 41" fill="none" xmlns="http://www.w3.org/2000/svg">
    <g clip-path="url(#clip0_18_1865)">
        <path d="M28.3333 7.16666C30.9855 7.16666 33.529 8.22023 35.4044 10.0956C37.2797 11.971 38.3333 14.5145 38.3333 17.1667V23.8333C38.3333 26.4855 37.2797 29.029 35.4044 30.9044C33.529 32.7798 30.9855 33.8333 28.3333 33.8333H11.6666C9.01446 33.8333 6.47092 32.7798 4.59556 30.9044C2.72019 29.029 1.66663 26.4855 1.66663 23.8333V17.1667C1.66663 14.5145 2.72019 11.971 4.59556 10.0956C6.47092 8.22023 9.01446 7.16666 11.6666 7.16666H28.3333ZM28.3333 10.5H11.6666C9.95622 10.5 8.31125 11.1574 7.07194 12.3362C5.83263 13.515 5.09381 15.1251 5.00829 16.8333L4.99996 17.1667V23.8333C4.99996 25.5437 5.65735 27.1887 6.83617 28.428C8.01498 29.6673 9.62503 30.4061 11.3333 30.4917L11.6666 30.5H28.3333C30.0437 30.5 31.6887 29.8426 32.928 28.6638C34.1673 27.485 34.9061 25.8749 34.9916 24.1667L35 23.8333V17.1667C35 15.4563 34.3426 13.8113 33.1638 12.572C31.9849 11.3327 30.3749 10.5938 28.6666 10.5083L28.3333 10.5ZM16.6666 15.5V18.8333H20V22.1667H16.665L16.6666 25.5H13.3333L13.3316 22.1667H9.99996V18.8333H13.3333V15.5H16.6666ZM30 22.1667V25.5H26.6666V22.1667H30ZM26.6666 15.5V18.8333H23.3333V15.5H26.6666Z" 
            fill="#1E3072"
        />
    </g>
    <defs>
        <clipPath id="clip0_18_1865">
            <rect width="40" height="40" fill="white" transform="translate(0 0.5)"/>
        </clipPath>
    </defs>
</svg>